<?xml version="1.0" encoding="iso-8859-1"?>
<!-- Generator: Adobe Illustrator 19.0.0, SVG Export Plug-In . SVG Version: 6.00 Build 0)  -->
<svg version="1.1" id="Layer_1" xmlns="http://www.w3.org/2000/svg" xmlns:xlink="http://www.w3.org/1999/xlink" x="0px" y="0px"
	 viewBox="0 0 512.001 512.001" style="enable-background:new 0 0 512.001 512.001;" xml:space="preserve">
<path style="fill:#D55200;" d="M437.267,98.756l69.758-69.757c6.635-6.635,6.635-17.391,0-24.024c-6.635-6.634-17.39-6.634-24.024,0
	l-69.756,69.757l-70.024,70.023L229.474,258.501l24.024,24.024l113.745-113.747l52.01-52.008"/>
<rect x="217.362" y="218.584" transform="matrix(-0.7071 0.7071 -0.7071 -0.7071 638.4708 206.6844)" style="fill:#E57E05;" width="118.135" height="33.98"/>
<path style="fill:#FF433F;" d="M229.474,258.501l-107.697,0.205l53.746,53.745l24.024,24.025l53.746,53.746l0.204-107.697
	L229.474,258.501z M223.362,309.711c-5.82,5.82-15.256,5.82-21.074,0c-5.82-5.818-5.82-15.254,0-21.074
	c5.819-5.818,15.254-5.818,21.074,0C229.181,294.457,229.181,303.893,223.362,309.711z"/>
<polygon style="fill:#C12323;" points="250.393,279.421 250.393,279.421 250.393,279.421 229.474,258.501 121.777,258.706 
	144.882,281.81 "/>
<path style="fill:#FFCE54;" d="M239.585,402.8L109.198,272.414c-3.197-3.196-8.27-3.532-11.86-0.78L3.531,343.526
	c-2.061,1.579-3.342,3.972-3.512,6.564c-0.171,2.592,0.784,5.131,2.621,6.968L154.944,509.36c1.696,1.696,3.992,2.641,6.375,2.641
	c0.197,0,0.396-0.007,0.593-0.02c2.592-0.17,4.984-1.451,6.564-3.512l71.891-93.807C243.118,411.071,242.783,405.998,239.585,402.8z
	"/>
<g>
	<path style="fill:#FFB640;" d="M168.1,433.642c-3.64-2.921-8.961-2.34-11.883,1.301l-33.703,41.988l11.987,11.988
		c0.215-0.215,0.423-0.443,0.618-0.684l34.282-42.71C172.323,441.884,171.742,436.564,168.1,433.642z"/>
	<path style="fill:#FFB640;" d="M126.795,403.047l-37.407,40.757l11.951,11.951c0.086-0.086,0.176-0.163,0.258-0.254l37.653-41.024
		c3.157-3.44,2.928-8.786-0.512-11.943C135.3,399.377,129.951,399.607,126.795,403.047z"/>
	<path style="fill:#FFB640;" d="M96.686,373.586l-40.182,36.812c-0.092,0.083-0.171,0.176-0.259,0.263l11.952,11.951l39.908-36.56
		c3.443-3.153,3.676-8.5,0.523-11.943C105.474,370.669,100.127,370.436,96.686,373.586z"/>
	<path style="fill:#FFB640;" d="M35.066,389.483l42.85-34.555c3.634-2.93,4.204-8.251,1.274-11.886
		c-2.93-3.634-8.252-4.203-11.886-1.274l-43.555,35.124c-0.237,0.192-0.46,0.393-0.669,0.603L35.066,389.483z"/>
</g>
<path style="fill:#EAB339;" d="M17.019,367.134c0.17-2.592,1.45-4.985,3.512-6.564l93.1-71.35c-0.712-3.57-0.107-7.348,1.81-10.561
	l-6.244-6.244c-3.197-3.196-8.27-3.532-11.86-0.78L3.531,343.526c-2.061,1.579-3.342,3.972-3.512,6.564
	c-0.171,2.592,0.784,5.131,2.621,6.968l16.606,16.606C17.674,371.871,16.861,369.529,17.019,367.134z"/>
<path style="fill:#34394C;" d="M232.219,411.297L100.702,279.781c-5.819-5.82-5.819-15.256,0-21.074c5.82-5.82,15.256-5.82,21.074,0
	l131.517,131.516c5.819,5.821,5.819,15.256,0,21.074C247.474,417.118,238.039,417.118,232.219,411.297z"/>
<path style="fill:#282F44;" d="M99.234,260.444c-0.241,0.329-0.47,0.664-0.682,1.006c-0.099,0.161-0.195,0.322-0.287,0.487
	c-0.204,0.361-0.389,0.73-0.56,1.103c-0.063,0.137-0.133,0.273-0.19,0.411c-0.22,0.522-0.415,1.052-0.573,1.589
	c-0.001,0.003-0.002,0.007-0.003,0.01c-0.154,0.532-0.273,1.071-0.367,1.614c-0.025,0.14-0.041,0.281-0.061,0.422
	c-0.061,0.419-0.106,0.841-0.131,1.263c-0.009,0.151-0.017,0.303-0.021,0.454c-0.014,0.452-0.005,0.906,0.023,1.358
	c0.007,0.103,0.007,0.205,0.015,0.308c0.047,0.571,0.122,1.141,0.236,1.704c0.556,2.788,1.91,5.447,4.071,7.607l10.954,10.954
	l1.976-1.515c-0.942-4.721,0.411-9.81,4.071-13.469c5.82-5.82,15.256-5.82,21.074,0h0.045l-17.044-17.044
	c-5.819-5.82-15.254-5.82-21.074,0c-0.419,0.418-0.799,0.861-1.157,1.314C99.435,260.159,99.337,260.303,99.234,260.444z"/>
<g>
</g>
<g>
</g>
<g>
</g>
<g>
</g>
<g>
</g>
<g>
</g>
<g>
</g>
<g>
</g>
<g>
</g>
<g>
</g>
<g>
</g>
<g>
</g>
<g>
</g>
<g>
</g>
<g>
</g>
</svg>
