<?xml version="1.0" encoding="iso-8859-1"?>
<!-- Generator: Adobe Illustrator 19.0.0, SVG Export Plug-In . SVG Version: 6.00 Build 0)  -->
<svg version="1.1" id="Layer_1" xmlns="http://www.w3.org/2000/svg" xmlns:xlink="http://www.w3.org/1999/xlink" x="0px" y="0px"
	 viewBox="0 0 496.2 496.2" style="enable-background:new 0 0 496.2 496.2;" xml:space="preserve">
<path style="fill:#334D5C;" d="M496.2,248.1C496.2,111.1,385.1,0,248.1,0S0,111.1,0,248.1s111.1,248.1,248.1,248.1
	S496.2,385.1,496.2,248.1z"/>
<path style="fill:#EA5454;" d="M333.7,293H162.5l16.4,143.6l0,0c0.8,9.8,31.4,17.7,69.1,17.7s68.4-7.9,69.1-17.7l0,0L333.7,293z"/>
<path style="fill:#FBDDDD;" d="M248.2,365.7c-23.1,0-49.3-1.7-68.3-14.1c-20-13.1-29.8-36.3-29.8-70.9h4.5
	c0,67.1,35.8,80.5,93.6,80.5c22.4,0,47.7-1.6,65.9-13.6c18.7-12.3,27.8-34.2,27.8-67h4.5c0,34.4-9.7,57.6-29.8,70.7
	C297.4,364,271.3,365.7,248.2,365.7z"/>
<path style="fill:#D82727;" d="M274.7,363.8c0,3.2-2.6,5.8-5.8,5.8H227c-3.2,0-5.8-2.6-5.8-5.8v-1.9c0-3.2,2.6-5.8,5.8-5.8h41.9
	c3.2,0,5.8,2.6,5.8,5.8V363.8z"/>
<path style="fill:#E04444;" d="M171.2,296.5c16.1,6.5,36.7,13,76.9,13c42.1,0,60.8-6.5,76.9-13c-18,4.9-45.8,8-76.9,8
	S189.2,301.4,171.2,296.5z"/>
<path style="fill:#EA4949;" d="M346.6,276h-197v7h0.1c0,0.1,0,0.1,0,0.2c0,11.7,44.1,21.3,98.4,21.3c54.4,0,98.4-9.5,98.4-21.3
	c0-0.1,0-0.1,0-0.2l0,0v-7H346.6z"/>
<ellipse style="fill:#EF6565;" cx="248.1" cy="276.6" rx="98.4" ry="21.3"/>
<path style="fill:#D82727;" d="M331.1,276.6c0-9.9-37.1-17.9-82.9-17.9s-82.9,8-82.9,17.9c0,3.4,4.4,6.6,12.1,9.3
	c14.6,5.2,127.2,5.2,141.7,0C326.6,283.2,331.1,280,331.1,276.6z"/>
<path style="fill:#A3D5E0;" d="M319,285.9c-14.6-5.2-40.8-8.6-70.9-8.6c-30,0-56.3,3.4-70.9,8.6c14.6,5.2,40.8,8.6,70.9,8.6
	C278.1,294.5,304.4,291,319,285.9z"/>
<path style="fill:#686767;" d="M214.4,103.6c0-2.7,2.2-4.9,4.9-4.9h57.5c2.7,0,4.9,2.2,4.9,4.9v12.7c0,0-67.4,0.5-67.4,0v-12.7
	H214.4z"/>
<path style="fill:#BCBBBB;" d="M257.6,90.6V0.2c-3.2-0.1-6.3-0.2-9.5-0.2c-3.1,0-6.1,0.1-9.2,0.2v90.4
	C238.9,95.8,257.6,95.8,257.6,90.6z"/>
<path style="fill:#686767;" d="M238.9,83.5c0-5.2,18.7-5.2,18.7,0v23.4c0,5.2-18.7,5.2-18.7,0V83.5z"/>
<g>
	<polygon style="fill:#C1BFBF;" points="231.7,200.3 208.8,215.6 213,177.2 236.8,164.4 235.6,179.6 	"/>
	<polygon style="fill:#C1BFBF;" points="275.3,215.6 265.1,212.8 268.8,181.8 292.6,169 	"/>
</g>
<path style="fill:#FFFFFF;" d="M281.8,116.3h-67.4c0,33.9-28.1,90.8-28.1,90.8c0,4.7,3.8,8.4,8.4,8.4h14
	c13.3-18,23.6-48.5,23.6-48.5c1.4,24.4-1.7,39.3-5.5,48.5h17.3c4.2-9.8,6.7-17.3,6.7-17.3c0.4,6.4,0.4,12.2,0.2,17.3h24.2
	c-1.5-8.5-2.2-19.4-1.3-33.4c0,0,5.8,17.2,14.4,33.4h13.1c4.7,0,8.4-3.8,8.4-8.4C309.9,207.1,281.8,150.5,281.8,116.3z"/>
<path style="fill:#91C5CE;" d="M256.4,249.8c-1.6-2.6-2.3-5.2-2.3-5.2l0,0c0,0-0.7,2.6-2.3,5.2c-2,4-5.2,6.1-5.2,11.2
	c0,4.4,3.2,7.9,7.5,7.9l0,0c4.4,0,7.5-3.5,7.5-7.9C261.6,255.9,258.4,253.8,256.4,249.8z"/>
<path style="fill:#B9E4EA;" d="M256.4,249.8c-1.6-2.6-2.3-5.2-2.3-5.2s-4.4,24.3,0,24.3l0,0c4.4,0,7.5-3.5,7.5-7.9
	C261.6,255.9,258.4,253.8,256.4,249.8z"/>
<path style="fill:#F2F7F7;" d="M254.5,267.6L254.5,267.6c3.4,0,5.9-2.8,5.9-6.2C260.4,257.5,251.1,267.6,254.5,267.6z"/>
<path style="fill:#91C5CE;" d="M209.9,230.5c-1.6-2.6-2.3-5.2-2.3-5.2l0,0c0,0-0.7,2.6-2.3,5.2c-2,4-5.2,6.1-5.2,11.2
	c0,4.4,3.2,7.9,7.5,7.9l0,0c4.4,0,7.5-3.5,7.5-7.9C215.1,236.6,211.9,234.5,209.9,230.5z"/>
<path style="fill:#B9E4EA;" d="M209.9,230.5c-1.6-2.6-2.3-5.2-2.3-5.2s-4.4,24.3,0,24.3l0,0c4.4,0,7.5-3.5,7.5-7.9
	C215.1,236.6,211.9,234.5,209.9,230.5z"/>
<path style="fill:#F2F7F7;" d="M208,248.3L208,248.3c3.4,0,5.9-2.8,5.9-6.2C213.9,238.1,204.6,248.3,208,248.3z"/>
<path style="fill:#91C5CE;" d="M302.9,230.5c-1.6-2.6-2.3-5.2-2.3-5.2l0,0c0,0-0.7,2.6-2.3,5.2c-2,4-5.2,6.1-5.2,11.2
	c0,4.4,3.2,7.9,7.5,7.9l0,0c4.4,0,7.5-3.5,7.5-7.9C308.1,236.6,304.9,234.5,302.9,230.5z"/>
<path style="fill:#B9E4EA;" d="M302.9,230.5c-1.6-2.6-2.3-5.2-2.3-5.2s-4.4,24.3,0,24.3l0,0c4.4,0,7.5-3.5,7.5-7.9
	C308.1,236.6,304.9,234.5,302.9,230.5z"/>
<path style="fill:#F2F7F7;" d="M301,248.3L301,248.3c3.4,0,5.9-2.8,5.9-6.2C306.9,238.1,297.6,248.3,301,248.3z"/>
<g>
</g>
<g>
</g>
<g>
</g>
<g>
</g>
<g>
</g>
<g>
</g>
<g>
</g>
<g>
</g>
<g>
</g>
<g>
</g>
<g>
</g>
<g>
</g>
<g>
</g>
<g>
</g>
<g>
</g>
</svg>
