<?xml version="1.0" encoding="iso-8859-1"?>
<!-- Generator: Adobe Illustrator 19.0.0, SVG Export Plug-In . SVG Version: 6.00 Build 0)  -->
<svg version="1.1" id="Layer_1" xmlns="http://www.w3.org/2000/svg" xmlns:xlink="http://www.w3.org/1999/xlink" x="0px" y="0px"
	 viewBox="0 0 512 512" style="enable-background:new 0 0 512 512;" xml:space="preserve">
<g>
	<path style="fill:#FDB51E;" d="M431.549,155.715c13.305,0,24.047,10.74,24.047,24.047c0,13.305-10.74,24.046-24.047,24.046
		c-13.305,0-24.046-10.74-24.046-24.046C407.504,166.455,418.244,155.715,431.549,155.715z"/>
	<path style="fill:#FDB51E;" d="M375.442,227.853c17.714,0,32.061,14.348,32.061,32.061s-14.348,32.061-32.061,32.061
		c-17.714,0-32.061-14.348-32.061-32.061S357.729,227.853,375.442,227.853z"/>
	<path style="fill:#FDB51E;" d="M327.35,155.715c8.817,0,16.031,7.214,16.031,16.031c0,8.817-7.213,16.031-16.031,16.031
		c-8.816,0-16.031-7.214-16.031-16.031C311.32,162.928,318.533,155.715,327.35,155.715z"/>
	<path style="fill:#FDB51E;" d="M239.181,187.776c13.305,0,24.047,10.74,24.047,24.046c0,13.305-10.74,24.046-24.047,24.046
		c-13.305,0-24.046-10.74-24.046-24.046C215.134,198.517,225.876,187.776,239.181,187.776z"/>
</g>
<g>
	<path style="fill:#F99B21;" d="M159.027,243.883c8.817,0,16.031,7.214,16.031,16.031c0,8.817-7.213,16.031-16.031,16.031
		c-8.817,0-16.031-7.213-16.031-16.031C142.997,251.098,150.21,243.883,159.027,243.883z"/>
	<path style="fill:#F99B21;" d="M70.858,251.899c8.816,0,16.031,7.213,16.031,16.031s-7.214,16.031-16.031,16.031
		c-8.817,0-16.031-7.213-16.031-16.031C54.827,259.113,62.041,251.899,70.858,251.899z"/>
	<path style="fill:#F99B21;" d="M94.904,155.715c13.305,0,24.047,10.74,24.047,24.047c0,13.305-10.74,24.046-24.047,24.046
		c-13.305,0-24.046-10.74-24.046-24.046C70.858,166.455,81.599,155.715,94.904,155.715z"/>
</g>
<path style="fill:#FDB51E;" d="M9.541,372.13c-1.844-5.05-2.806-10.42-2.806-16.031v-72.139c0,26.531,21.561,48.092,48.092,48.092
	h128.246c14.187,0,26.932-6.252,35.749-16.031h72.78c8.817,9.778,21.562,16.031,35.749,16.031h128.246
	c26.531,0,48.092-21.562,48.092-48.092v72.139c0,26.531-21.562,48.092-48.092,48.092H54.827
	C33.907,404.192,16.033,390.806,9.541,372.13z"/>
<path style="fill:#FFD311;" d="M287.273,123.654h4.328c8.817-9.778,21.562-16.031,35.749-16.031h128.246
	c26.531,0,48.092,21.561,48.092,48.092v128.246c0,26.531-21.562,48.092-48.092,48.092H327.35c-14.187,0-26.932-6.252-35.749-16.031
	h-72.78c-8.817,9.778-21.561,16.031-35.749,16.031H54.827c-26.531,0-48.092-21.562-48.092-48.092V155.715
	c0-26.531,21.561-48.092,48.092-48.092h128.246c14.187,0,26.932,6.252,35.749,16.031H287.273z M455.596,179.761
	c0-13.305-10.74-24.047-24.047-24.047c-13.305,0-24.046,10.74-24.046,24.047c0,13.305,10.74,24.046,24.046,24.046
	C444.855,203.807,455.596,193.067,455.596,179.761z M407.504,259.914c0-17.714-14.348-32.061-32.061-32.061
	c-17.714,0-32.061,14.348-32.061,32.061s14.348,32.061,32.061,32.061C393.156,291.977,407.504,277.628,407.504,259.914z
	 M343.381,171.746c0-8.816-7.213-16.031-16.031-16.031c-8.816,0-16.031,7.214-16.031,16.031c0,8.817,7.213,16.031,16.031,16.031
	C336.167,187.776,343.381,180.562,343.381,171.746z M263.227,211.822c0-13.305-10.74-24.046-24.047-24.046
	c-13.305,0-24.046,10.74-24.046,24.046c0,13.305,10.74,24.046,24.046,24.046C252.486,235.869,263.227,225.128,263.227,211.822z
	 M175.058,259.914c0-8.816-7.213-16.031-16.031-16.031c-8.817,0-16.031,7.214-16.031,16.031c0,8.817,7.213,16.031,16.031,16.031
	C167.845,275.946,175.058,268.732,175.058,259.914z M118.95,179.761c0-13.305-10.74-24.047-24.047-24.047
	c-13.305,0-24.046,10.74-24.046,24.047c0,13.305,10.74,24.046,24.046,24.046C108.21,203.807,118.95,193.067,118.95,179.761z
	 M86.888,267.93c0-8.817-7.214-16.031-16.031-16.031c-8.817,0-16.031,7.213-16.031,16.031s7.213,16.031,16.031,16.031
	S86.888,276.747,86.888,267.93z"/>
<path style="fill:#F9A020;" d="M39.634,372.13c-1.844-5.05-2.806-10.42-2.806-16.031v-27.55
	c-17.63-7.137-30.093-24.421-30.093-44.588v72.138c0,5.61,0.962,10.981,2.806,16.031c6.492,18.676,24.367,32.061,45.286,32.061
	H84.92C64.001,404.192,46.126,390.806,39.634,372.13z"/>
<path style="fill:#FDB51E;" d="M36.828,328.549v-44.588V155.715c0-26.531,21.561-48.092,48.092-48.092H54.827
	c-26.531,0-48.092,21.562-48.092,48.092v128.246C6.735,304.128,19.2,321.412,36.828,328.549z"/>
<g>
	<path style="fill:#231F20;" d="M71.646,244.468c-11.771,0-21.552,8.679-23.282,19.972c-0.179,1.169-0.272,2.364-0.272,3.582
		c0,12.987,10.567,23.554,23.554,23.554S95.2,281.01,95.2,268.022c0-1.218-0.093-2.414-0.272-3.582
		C93.198,253.146,83.417,244.468,71.646,244.468z M71.646,276.531c-4.691,0-8.507-3.817-8.507-8.507
		c0-4.691,3.817-8.506,8.507-8.506c4.691,0,8.507,3.817,8.507,8.506C80.154,272.714,76.338,276.531,71.646,276.531z"/>
	<path style="fill:#231F20;" d="M456.385,100.193H328.139c-14.522,0-28.533,5.804-38.954,16.03h-66.37
		c-10.421-10.226-24.432-16.03-38.954-16.03H98.547v15.047h85.315c11.406,0,22.399,4.937,30.162,13.545l2.241,2.486h64.274v16.523
		h15.047V131.27h0.151l2.241-2.486c7.762-8.608,18.755-13.545,30.162-13.545h128.246c22.369,0,40.569,18.199,40.569,40.568v24.047
		H512v-24.047C512,125.141,487.051,100.193,456.385,100.193z"/>
	<path style="fill:#231F20;" d="M496.953,284.054c0,22.369-18.199,40.568-40.569,40.568H328.139
		c-11.406,0-22.399-4.937-30.161-13.545l-2.241-2.486h-72.289v-16.523h-15.047v24.047h0.165c-7.077,5.46-15.759,8.506-24.703,8.506
		H55.615c-22.369,0.001-40.569-18.198-40.569-40.567V155.807c0-22.369,18.199-40.568,40.569-40.568H80.25v-15.047H55.615
		C24.949,100.193,0,125.141,0,155.807v200.385c0,6.402,1.09,12.644,3.242,18.557c7.733,22.169,28.773,37.059,52.373,37.059h272.522
		v-15.047H55.615c-13.363,0-25.592-6.538-33.027-17.015h329.595v-15.047H15.961c-0.607-2.766-0.914-5.611-0.914-8.507v-34.153
		c10.154,10.839,24.58,17.63,40.569,17.63h128.246c14.522,0,28.532-5.804,38.954-16.03h66.37
		c10.42,10.226,24.432,16.03,38.954,16.03h128.246c15.989,0,30.414-6.792,40.569-17.63v34.153c0,22.37-18.199,40.569-40.569,40.569
		H344.169v15.047h112.215c30.666,0,55.615-24.949,55.615-55.615V194.161h-15.047V284.054z"/>
	<path style="fill:#231F20;" d="M127.262,179.854c0-17.408-14.162-31.57-31.569-31.57s-31.57,14.162-31.57,31.57
		s14.162,31.57,31.57,31.57S127.262,197.261,127.262,179.854z M79.17,179.854c0-9.111,7.412-16.523,16.523-16.523
		c9.11,0,16.522,7.412,16.522,16.523s-7.412,16.523-16.522,16.523C86.582,196.376,79.17,188.965,79.17,179.854z"/>
	<path style="fill:#231F20;" d="M336.646,260.007c0,21.828,17.758,39.585,39.585,39.585c21.827,0,39.585-17.757,39.585-39.585
		c0-21.828-17.758-39.585-39.585-39.585C354.403,220.423,336.646,238.18,336.646,260.007z M400.768,260.007
		c0,13.53-11.008,24.538-24.538,24.538s-24.538-11.008-24.538-24.538s11.008-24.538,24.538-24.538
		C389.761,235.469,400.768,246.477,400.768,260.007z"/>
	<path style="fill:#231F20;" d="M183.37,260.007c0-12.987-10.567-23.554-23.554-23.554s-23.554,10.567-23.554,23.554
		c0,12.987,10.567,23.553,23.554,23.553S183.37,272.995,183.37,260.007z M151.308,260.007c0-4.692,3.817-8.507,8.507-8.507
		c4.691,0,8.507,3.817,8.507,8.507s-3.817,8.506-8.507,8.506C155.125,268.514,151.308,264.698,151.308,260.007z"/>
	<path style="fill:#231F20;" d="M328.139,148.284c-12.987,0-23.554,10.567-23.554,23.554s10.567,23.553,23.554,23.553
		s23.554-10.566,23.554-23.553C351.693,158.851,341.126,148.284,328.139,148.284z M328.139,180.345
		c-4.691,0-8.507-3.817-8.507-8.506c0-4.692,3.817-8.507,8.507-8.507c4.691,0,8.507,3.817,8.507,8.507
		C336.646,176.529,332.829,180.345,328.139,180.345z"/>
	<path style="fill:#231F20;" d="M271.538,211.915c0-17.408-14.162-31.57-31.569-31.57s-31.57,14.162-31.57,31.57
		s14.162,31.57,31.57,31.57S271.538,229.322,271.538,211.915z M223.446,211.915c0-9.111,7.412-16.523,16.523-16.523
		c9.11,0,16.522,7.412,16.522,16.523s-7.412,16.523-16.522,16.523C230.859,228.438,223.446,221.027,223.446,211.915z"/>
	<path style="fill:#231F20;" d="M432.338,211.423c17.407,0,31.57-14.162,31.57-31.57s-14.162-31.57-31.57-31.57
		c-17.408,0-31.57,14.162-31.57,31.57C400.768,197.261,414.93,211.423,432.338,211.423z M432.338,163.331
		c9.11,0,16.523,7.412,16.523,16.523s-7.412,16.523-16.523,16.523c-9.111,0-16.523-7.412-16.523-16.523
		C415.815,170.743,423.227,163.331,432.338,163.331z"/>
</g>
<g>
	<rect x="368.212" y="364.701" style="fill:#FFFFFF;" width="16.031" height="15.047"/>
	<rect x="400.282" y="364.701" style="fill:#FFFFFF;" width="16.031" height="15.047"/>
</g>
<g>
</g>
<g>
</g>
<g>
</g>
<g>
</g>
<g>
</g>
<g>
</g>
<g>
</g>
<g>
</g>
<g>
</g>
<g>
</g>
<g>
</g>
<g>
</g>
<g>
</g>
<g>
</g>
<g>
</g>
</svg>
