<?xml version="1.0" encoding="iso-8859-1"?>
<!-- Generator: Adobe Illustrator 19.0.0, SVG Export Plug-In . SVG Version: 6.00 Build 0)  -->
<svg version="1.1" id="Layer_1" xmlns="http://www.w3.org/2000/svg" xmlns:xlink="http://www.w3.org/1999/xlink" x="0px" y="0px"
	 viewBox="0 0 512 512" style="enable-background:new 0 0 512 512;" xml:space="preserve">
<circle style="fill:#439C80;" cx="256" cy="256" r="256"/>
<path style="fill:#26825C;" d="M358.9,92.316l-5.436,9.392V270.42l-13.576,54.296l-95.992-91.14l-98.9,162.888l-7.804,7.804
	l107.156,107.436C248.212,511.88,252.092,512,256,512c141.392,0,256-114.616,256-256c0-3.504-0.124-6.976-0.264-10.444L358.9,92.316
	z"/>
<g>
	<path style="fill:#FFFFFF;" d="M122.212,277.66c8.484-30.82,32.576-54.348,62.352-59.8c0.796-7.424,6.384-13.216,13.216-13.216
		c6.848,0,12.424,5.788,13.228,13.216c29.78,5.452,53.868,28.98,62.356,59.8"/>
	<path style="fill:#FFFFFF;" d="M272.752,408.664c8.012-4.812,17.208-9.692,25.632-14.084c10.408-5.42,14.892-16.44,17.96-27.216
		c3.132-10.952,7.244-22.212,8.312-33.644c0.664-7.16-0.828-14.112,1.532-21.028c0.696-2.04,1.492-3.772,2.376-5.292
		c-8.272-0.584-14.784-5.12-14.784-10.676c0-5.928,7.436-10.784,16.504-10.784h41.348c9.084,0,16.52,4.856,16.52,10.784
		c0,5.784-7.072,10.5-15.824,10.752c2.096,5.16,3.444,10.748,6.208,15.516c2.916,5.048,7.096,8.588,8.756,14.264
		c3.06,10.436,3.112,21.752,3.112,32.636c0,10.876-0.288,21.596-3.18,32.148c-2.348,8.58-6.74,14.988-10.56,22.568
		c-2.356-0.16-3.34-1.996-4.876-3.66c-4.02,1.708-5.392,4.224-10.12,4.12c-3.512-0.076-6.74-2.324-9.708-2.556
		c-3.86-0.272-6.292,3.28-10.28,2.612c-4.616-0.752-5.976-3.272-10.372-2.372c-2.864,0.58-7.724,2.976-10.848,1.46
		c-2.504-1.232-2.736-4.816-5.904-5.38c-1.484-0.264-2.092,0.736-2.976,0.848c-4.528,0.584-5.888,0.536-10.424-0.892
		c-3.992-1.26-4.052,0.172-7.828,0.124c-5.796-0.056-12.016-2.444-17.772-3.452c-1.804-0.336-6.08,0.908-7.248-0.84
		C266.6,412.08,270.976,409.74,272.752,408.664z"/>
	<rect x="191.7" y="302.2" style="fill:#FFFFFF;" width="12.18" height="82.056"/>
	
		<rect x="156.121" y="302.071" transform="matrix(0.9965 -0.0834 0.0834 0.9965 -28.0614 14.7244)" style="fill:#FFFFFF;" width="12.18" height="82.335"/>
	
		<rect x="192.203" y="337.116" transform="matrix(0.0834 -0.9965 0.9965 0.0834 -128.1016 547.1381)" style="fill:#FFFFFF;" width="82.335" height="12.176"/>
</g>
<polygon style="fill:#A6A8AB;" points="257.564,404.74 138,404.74 121.6,277.752 273.976,277.752 "/>
<path style="fill:#FAAF40;" d="M364.3,286.076h-26.684c-9.084,0-16.52-5.212-16.52-11.576c0-6.352,7.432-11.56,16.52-11.56h2.616
	c-0.048-0.564-0.116-1.112-0.116-1.708V103.308c0-9.092,4.876-16.52,10.852-16.52c5.952,0,10.828,7.424,10.828,16.52v157.924
	c0,0.592-0.076,1.144-0.112,1.708h2.616c9.092,0,16.512,5.208,16.512,11.56C380.812,280.864,373.396,286.076,364.3,286.076z"/>
<g>
</g>
<g>
</g>
<g>
</g>
<g>
</g>
<g>
</g>
<g>
</g>
<g>
</g>
<g>
</g>
<g>
</g>
<g>
</g>
<g>
</g>
<g>
</g>
<g>
</g>
<g>
</g>
<g>
</g>
</svg>
