<?xml version="1.0" encoding="iso-8859-1"?>
<!-- Generator: Adobe Illustrator 19.0.0, SVG Export Plug-In . SVG Version: 6.00 Build 0)  -->
<svg version="1.1" id="Layer_1" xmlns="http://www.w3.org/2000/svg" xmlns:xlink="http://www.w3.org/1999/xlink" x="0px" y="0px"
	 viewBox="0 0 512 512" style="enable-background:new 0 0 512 512;" xml:space="preserve">
<path style="fill:#48ADE1;" d="M410.649,394.908H269.808c0,7.626-6.182,13.808-13.808,13.808c-7.626,0-13.808-6.182-13.808-13.808
	H101.351c-7.32,0-13.256,5.935-13.256,13.256v90.58c0,7.32,5.935,13.256,13.256,13.256h309.299c7.32,0,13.256-5.935,13.256-13.256
	v-90.58C423.905,400.844,417.97,394.908,410.649,394.908z"/>
<path style="fill:#828186;" d="M410.649,394.908H269.808c0,7.626-6.182,13.808-13.808,13.808c-7.626,0-13.808-6.182-13.808-13.808
	H101.351c-7.32,0-13.256,5.935-13.256,13.256v45.29h335.81v-45.29C423.905,400.844,417.97,394.908,410.649,394.908z"/>
<path style="fill:#178BAF;" d="M110.188,498.744v-90.58c0-7.32,5.935-13.256,13.256-13.256h-22.093
	c-7.32,0-13.256,5.935-13.256,13.256v90.58c0,7.32,5.935,13.256,13.256,13.256h22.093C116.123,512,110.188,506.065,110.188,498.744z
	"/>
<path style="fill:#676570;" d="M123.443,394.908h-22.093c-7.32,0-13.256,5.935-13.256,13.256v45.29h22.093v-45.29
	C110.188,400.844,116.123,394.908,123.443,394.908z"/>
<path style="fill:#BDBEC0;" d="M269.808,394.908c0,7.626-6.182,13.808-13.808,13.808c-7.626,0-13.808-6.182-13.808-13.808h-49.154
	v18.227c0,7.32,5.935,13.256,13.256,13.256h99.411c7.323,0,13.256-5.935,13.256-13.256v-18.227H269.808z"/>
<path style="fill:#AAADAF;" d="M215.131,413.135v-18.227h-22.093v18.227c0,7.32,5.935,13.256,13.256,13.256h22.093
	C221.066,426.391,215.131,420.455,215.131,413.135z"/>
<g>
	<path style="fill:#82D6F4;" d="M130.071,471.681c-4.577,0-8.285,3.709-8.285,8.285V512h16.57v-32.035
		C138.356,475.39,134.647,471.681,130.071,471.681z"/>
	<path style="fill:#82D6F4;" d="M381.929,471.681c-4.577,0-8.285,3.709-8.285,8.285V512h16.57v-32.035
		C390.214,475.39,386.504,471.681,381.929,471.681z"/>
	<path style="fill:#82D6F4;" d="M339.953,471.681c-4.577,0-8.285,3.709-8.285,8.285V512h16.57v-32.035
		C348.237,475.39,344.528,471.681,339.953,471.681z"/>
	<path style="fill:#82D6F4;" d="M297.976,471.681c-4.577,0-8.285,3.709-8.285,8.285V512h16.57v-32.035
		C306.261,475.39,302.552,471.681,297.976,471.681z"/>
	<path style="fill:#82D6F4;" d="M256,471.681c-4.577,0-8.285,3.709-8.285,8.285V512h16.57v-32.035
		C264.285,475.39,260.575,471.681,256,471.681z"/>
	<path style="fill:#82D6F4;" d="M214.024,471.681c-4.577,0-8.285,3.709-8.285,8.285V512h16.57v-32.035
		C222.309,475.39,218.599,471.681,214.024,471.681z"/>
	<path style="fill:#82D6F4;" d="M172.047,471.681c-4.577,0-8.285,3.709-8.285,8.285V512h16.57v-32.035
		C180.332,475.39,176.623,471.681,172.047,471.681z"/>
</g>
<path style="fill:#F2C097;" d="M256,40.399c-5.67,0-10.684-2.762-13.808-7.001v7.001V383.31v13.808
	c0,7.626,6.182,13.808,13.808,13.808c7.626,0,13.808-6.182,13.808-13.808V383.31V232.825v-26.511V40.399v-7.001
	C266.684,37.637,261.67,40.399,256,40.399z"/>
<path style="fill:#CEA07A;" d="M256,40.399c-5.67,0-10.684-2.762-13.808-7.001v7.001v132.477h27.616V40.399v-7.001
	C266.684,37.637,261.67,40.399,256,40.399z"/>
<path style="fill:#828186;" d="M256,50.893c-14.031,0-25.445-11.415-25.445-25.448C230.555,11.415,241.969,0,256,0
	c14.03,0,25.445,11.415,25.445,25.445C281.445,39.478,270.03,50.893,256,50.893z M256,16.57c-4.896,0-8.876,3.981-8.876,8.876
	c0,4.896,3.981,8.878,8.876,8.878c4.894,0,8.876-3.982,8.876-8.878C264.876,20.551,260.894,16.57,256,16.57z"/>
<path style="fill:#676570;" d="M254.803,34.233c-4.328-0.587-7.678-4.299-7.678-8.787s3.349-8.199,7.678-8.785
	c2.25-6.099,6.777-11.101,12.54-13.983C263.925,0.968,260.074,0,256,0c-14.031,0-25.445,11.415-25.445,25.445
	c0,14.032,11.414,25.448,25.445,25.448c4.074,0,7.925-0.968,11.342-2.678C261.58,45.333,257.053,40.331,254.803,34.233z"/>
<g>
</g>
<g>
</g>
<g>
</g>
<g>
</g>
<g>
</g>
<g>
</g>
<g>
</g>
<g>
</g>
<g>
</g>
<g>
</g>
<g>
</g>
<g>
</g>
<g>
</g>
<g>
</g>
<g>
</g>
</svg>
