<?xml version="1.0" encoding="iso-8859-1"?>
<!-- Generator: Adobe Illustrator 19.0.0, SVG Export Plug-In . SVG Version: 6.00 Build 0)  -->
<svg version="1.1" id="Layer_1" xmlns="http://www.w3.org/2000/svg" xmlns:xlink="http://www.w3.org/1999/xlink" x="0px" y="0px"
	 viewBox="0 0 512 512" style="enable-background:new 0 0 512 512;" xml:space="preserve">
<path style="fill:#5A5D6F;" d="M362.69,506.828l-22.383-22.379c-11.673-11.682-18.1-27.199-18.1-43.699V145.655
	c0-60.845-49.5-110.345-110.345-110.345s-110.345,49.5-110.345,110.345v128h35.31v-128c0-41.37,33.66-75.034,75.034-75.034
	s75.034,33.664,75.034,75.034v16.258c0,26.044-13.827,50.621-36.09,64.138l-34.194,20.767l-18.327-30.189l34.194-20.759
	c11.785-7.155,19.107-20.163,19.107-33.956v-16.258c0-21.906-17.818-39.724-39.724-39.724s-39.724,17.818-39.724,39.724v163.31
	H66.206v-163.31C66.206,65.345,131.547,0,211.862,0s145.655,65.345,145.655,145.655V440.75c0,7.069,2.759,13.725,7.763,18.741
	l22.375,22.37L362.69,506.828z"/>
<path style="fill:#C4CFE3;" d="M357.517,432.552h-35.31V163.31c0-2.438,1.976-4.414,4.414-4.414h26.483
	c2.438,0,4.414,1.976,4.414,4.414V432.552z"/>
<path style="fill:#ABB9D3;" d="M224.911,259.09L190.8,218.57l32.36-27.241c3.73-3.139,9.299-2.662,12.438,1.068l22.74,27.012
	c3.139,3.73,2.661,9.299-1.068,12.438L224.911,259.09z"/>
<path style="fill:#E1EAF6;" d="M210.504,193.588c-1.56-2.039-3.254-3.94-5.056-5.714c-3.2-3.148-8.302-3.324-11.783-0.489
	l-12.701,10.342l44.874,79.081l13.481-4.853c4.553-1.639,6.994-6.656,5.359-11.21C235.607,235.448,223.928,211.139,210.504,193.588z
	"/>
<path style="fill:#FF9E60;" d="M136.827,503.172h79.448c19.501,0,35.31-15.809,35.31-35.31V361.931
	c0-40.493-22.3-120.801-54.324-162.669c-10.985-14.36-28.061-22.71-46.141-22.71h-67.26c-14.626,0-26.483,11.857-26.483,26.483
	v185.379L136.827,503.172z"/>
<path style="fill:#FF8751;" d="M127.999,459.034v32.662l8.828,11.476h79.448c19.501,0,35.31-15.809,35.31-35.31v-8.828H127.999z"/>
<path style="fill:#E1EAF6;" d="M83.862,370.023V251.586c0-7.313,5.928-13.241,13.241-13.241h38.366
	c6.578,0,12.565,3.631,15.637,9.449c11.805,22.358,38.687,80.609,38.687,184.758L83.862,370.023z"/>
<path style="fill:#444455;" d="M110.344,512c-43.809,0-79.448-35.644-79.448-79.448s35.639-79.448,79.448-79.448
	s79.448,35.644,79.448,79.448S154.153,512,110.344,512z"/>
<circle style="fill:#FFBE75;" cx="110.344" cy="432.552" r="52.966"/>
<circle style="fill:#5A5D6F;" cx="110.344" cy="432.552" r="35.31"/>
<path style="fill:#FFBE75;" d="M151.121,176.552h-14.294v12.189c0,7.894,6.4,14.294,14.294,14.294l0,0
	c9.822,0,19.207,4.605,25.107,12.318c27.073,35.395,48.875,109.13,48.875,146.579v38.671c0,7.894,6.4,14.294,14.294,14.294h12.189
	v-52.966c0-40.493-22.298-120.8-54.323-162.668C186.278,184.902,169.201,176.552,151.121,176.552z"/>
<path style="fill:#444455;" d="M357.517,440.753V419.31c0-2.438-1.976-4.414-4.414-4.414H326.62c-2.438,0-4.414,1.976-4.414,4.414
	v21.449c0,16.387,6.51,32.103,18.099,43.689l22.383,22.379l24.966-24.966l-22.375-22.37
	C360.31,454.521,357.517,447.782,357.517,440.753z"/>
<path style="fill:#5A5D6F;" d="M472.275,512H359.876c-4.609,0-7.24-5.261-4.474-8.949l15.034-20.046
	c2.947-3.929,7.708-6.067,12.602-5.66l89.971,7.498c4.575,0.382,8.095,4.206,8.095,8.797v9.533
	C481.103,508.047,477.15,512,472.275,512z"/>
<g>
	<path style="fill:#C4CFE3;" d="M136.827,282.483h-26.483c-4.875,0-8.828-3.953-8.828-8.828l0,0c0-4.875,3.953-8.828,8.828-8.828
		h26.483c4.875,0,8.828,3.953,8.828,8.828l0,0C145.655,278.53,141.702,282.483,136.827,282.483z"/>
	<path style="fill:#C4CFE3;" d="M154.482,335.448h-44.138c-4.875,0-8.828-3.953-8.828-8.828l0,0c0-4.875,3.953-8.828,8.828-8.828
		h44.138c4.875,0,8.828,3.953,8.828,8.828l0,0C163.31,331.496,159.357,335.448,154.482,335.448z"/>
	<path style="fill:#C4CFE3;" d="M145.655,308.966h-35.31c-4.875,0-8.828-3.953-8.828-8.828l0,0c0-4.875,3.953-8.828,8.828-8.828
		h35.31c4.875,0,8.828,3.953,8.828,8.828l0,0C154.482,305.013,150.53,308.966,145.655,308.966z"/>
</g>
<g>
</g>
<g>
</g>
<g>
</g>
<g>
</g>
<g>
</g>
<g>
</g>
<g>
</g>
<g>
</g>
<g>
</g>
<g>
</g>
<g>
</g>
<g>
</g>
<g>
</g>
<g>
</g>
<g>
</g>
</svg>
